<svg width="42" height="43" viewBox="0 0 42 43" fill="none" xmlns="http://www.w3.org/2000/svg">
<path d="M36.75 3.35385C37.4462 3.35385 38.1139 3.63041 38.6062 4.1227C39.0984 4.61498 39.375 5.28266 39.375 5.97885V37.4789C39.375 38.175 39.0984 38.8427 38.6062 39.335C38.1139 39.8273 37.4462 40.1039 36.75 40.1039H5.25C4.55381 40.1039 3.88613 39.8273 3.39384 39.335C2.90156 38.8427 2.625 38.175 2.625 37.4789V5.97885C2.625 5.28266 2.90156 4.61498 3.39384 4.1227C3.88613 3.63041 4.55381 3.35385 5.25 3.35385H36.75ZM5.25 0.728851C3.85761 0.728851 2.52226 1.28197 1.53769 2.26654C0.553123 3.25111 0 4.58646 0 5.97885L0 37.4789C0 38.8712 0.553123 40.2066 1.53769 41.1912C2.52226 42.1757 3.85761 42.7289 5.25 42.7289H36.75C38.1424 42.7289 39.4777 42.1757 40.4623 41.1912C41.4469 40.2066 42 38.8712 42 37.4789V5.97885C42 4.58646 41.4469 3.25111 40.4623 2.26654C39.4777 1.28197 38.1424 0.728851 36.75 0.728851L5.25 0.728851Z" fill="#08A652"/>
<path d="M12.1952 12.9246C12.3171 12.8024 12.4619 12.7054 12.6214 12.6392C12.7808 12.5731 12.9518 12.539 13.1244 12.539C13.2971 12.539 13.468 12.5731 13.6275 12.6392C13.7869 12.7054 13.9317 12.8024 14.0537 12.9246L20.9994 19.873L27.9452 12.9246C28.0672 12.8026 28.2121 12.7058 28.3715 12.6397C28.5309 12.5737 28.7018 12.5397 28.8744 12.5397C29.047 12.5397 29.2179 12.5737 29.3773 12.6397C29.5368 12.7058 29.6816 12.8026 29.8037 12.9246C29.9257 13.0466 30.0225 13.1915 30.0885 13.3509C30.1546 13.5104 30.1886 13.6813 30.1886 13.8538C30.1886 14.0264 30.1546 14.1973 30.0885 14.3568C30.0225 14.5162 29.9257 14.6611 29.8037 14.7831L22.8553 21.7288L29.8037 28.6746C29.9257 28.7966 30.0225 28.9415 30.0885 29.1009C30.1546 29.2604 30.1886 29.4313 30.1886 29.6038C30.1886 29.7764 30.1546 29.9473 30.0885 30.1068C30.0225 30.2662 29.9257 30.4111 29.8037 30.5331C29.6816 30.6551 29.5368 30.7519 29.3773 30.818C29.2179 30.884 29.047 30.918 28.8744 30.918C28.7018 30.918 28.5309 30.884 28.3715 30.818C28.2121 30.7519 28.0672 30.6551 27.9452 30.5331L20.9994 23.5847L14.0537 30.5331C13.9316 30.6551 13.7868 30.7519 13.6273 30.818C13.4679 30.884 13.297 30.918 13.1244 30.918C12.9518 30.918 12.7809 30.884 12.6215 30.818C12.4621 30.7519 12.3172 30.6551 12.1952 30.5331C12.0731 30.4111 11.9763 30.2662 11.9103 30.1068C11.8442 29.9473 11.8103 29.7764 11.8103 29.6038C11.8103 29.4313 11.8442 29.2604 11.9103 29.1009C11.9763 28.9415 12.0731 28.7966 12.1952 28.6746L19.1435 21.7288L12.1952 14.7831C12.0729 14.6612 11.976 14.5163 11.9098 14.3569C11.8436 14.1974 11.8096 14.0265 11.8096 13.8538C11.8096 13.6812 11.8436 13.5103 11.9098 13.3508C11.976 13.1914 12.0729 13.0465 12.1952 12.9246Z" fill="#08A652"/>
</svg>
